<svg width="95" height="28" viewBox="0 0 95 28" fill="none" xmlns="http://www.w3.org/2000/svg">
<path d="M34.3913 1.38169V19.4828C34.3913 19.4828 34.4535 22.2854 32.12 24.9476C29.7866 27.6098 26.7236 27.9322 25.9123 27.9322C25.1011 27.9322 22.4229 27.9322 22.4229 27.9322L22.8645 7.79696C22.8645 7.79696 22.9222 4.76996 25.4663 2.24112C27.8903 -0.168467 30.9844 0.00288923 30.9844 0.00288923H33.0539C33.0539 0.00288923 34.3913 -0.12342 34.3913 1.38169Z" fill="url(#paint0_linear_147_6503)"/>
<path d="M11.3101 15.6689L11.4123 27.9324H1.21397C1.21397 27.9324 7.67119e-05 27.9042 7.67119e-05 26.9617C7.67119e-05 26.0192 7.67119e-05 23.2837 7.67119e-05 23.2837C7.67119e-05 23.2837 -0.0451641 20.5765 2.06168 18.302C4.16853 16.0284 6.68146 15.729 7.46431 15.729C8.24716 15.729 11.3101 15.6689 11.3101 15.6689Z" fill="url(#paint1_linear_147_6503)"/>
<path d="M22.9151 27.9324H10.8445L11.3092 15.6689C11.3092 15.6689 11.1662 12.7497 13.879 10.1546C15.7406 8.37391 17.4689 7.92432 18.9777 7.92432C20.4866 7.92432 22.8609 7.92432 22.8609 7.92432L22.9151 27.9324Z" fill="url(#paint2_linear_147_6503)"/>
<path opacity="0.61" d="M22.4121 27.9329C22.4121 27.9329 22.6165 27.9329 22.9151 27.9329L22.8617 7.9248L22.4121 27.9329Z" fill="#B50D31"/>
<path opacity="0.59" d="M11.309 15.5176L10.8328 27.9321H11.3997L11.309 15.5176Z" fill="#C84E28"/>
<path d="M46.8326 10.2736H49.7071V21.6971H46.8326V20.4897C46.2719 21.0214 45.7085 21.4047 45.1443 21.6397C44.58 21.8738 43.9679 21.9912 43.3089 21.9912C41.8296 21.9912 40.5496 21.4189 39.4698 20.2741C38.39 19.1294 37.8506 17.7073 37.8506 16.0061C37.8506 14.2422 38.3732 12.7972 39.4176 11.6701C40.4619 10.543 41.7313 9.97949 43.2247 9.97949C43.9121 9.97949 44.557 10.1093 45.1593 10.3681C45.7626 10.6269 46.3197 11.0156 46.8317 11.5332L46.8326 10.2736ZM43.8112 12.6258C42.9227 12.6258 42.1848 12.9394 41.5966 13.5656C41.0094 14.1919 40.7153 14.9956 40.7153 15.9752C40.7153 16.9618 41.0147 17.7744 41.6126 18.4113C42.2105 19.0481 42.9475 19.367 43.8218 19.367C44.7244 19.367 45.4729 19.0534 46.0673 18.4272C46.6617 17.8009 46.9593 16.9804 46.9593 15.9646C46.9593 14.9709 46.6617 14.1654 46.0673 13.5497C45.472 12.9341 44.72 12.6258 43.8112 12.6258Z" fill="white"/>
<path d="M53.7347 5.57031C54.2387 5.57031 54.671 5.75227 55.0315 6.11618C55.3921 6.48009 55.5719 6.92085 55.5719 7.43933C55.5719 7.95075 55.3938 8.38621 55.0369 8.74659C54.6799 9.10697 54.2529 9.28716 53.756 9.28716C53.2449 9.28716 52.8091 9.10344 52.4485 8.73599C52.088 8.36855 51.9082 7.92249 51.9082 7.39694C51.9082 6.89258 52.0862 6.46243 52.4432 6.10558C52.8002 5.74874 53.2307 5.57031 53.7347 5.57031ZM52.2971 10.2738H55.1715V21.6973H52.2971V10.2738Z" fill="white"/>
<path d="M57.1096 10.2737H59.5739V11.7126C59.8405 11.1455 60.1949 10.7154 60.6378 10.4212C61.0798 10.1271 61.5643 9.98047 62.0905 9.98047C62.4625 9.98047 62.8523 10.0785 63.2597 10.2746L62.3651 12.7416C62.0285 12.5738 61.7503 12.4899 61.5333 12.4899C61.0913 12.4899 60.7175 12.7628 60.4119 13.3087C60.1063 13.8545 59.9539 14.926 59.9539 16.5212L59.9646 17.0776V21.6972H57.1114V10.2737H57.1096Z" fill="white"/>
<path d="M72.4386 10.2736H75.313V21.6971H72.4386V20.4897C71.8779 21.0214 71.3145 21.4047 70.7502 21.6397C70.186 21.8738 69.5739 21.9912 68.9149 21.9912C67.4356 21.9912 66.1556 21.4189 65.0758 20.2741C63.996 19.1294 63.4565 17.7073 63.4565 16.0061C63.4565 14.2422 63.9792 12.7972 65.0235 11.6701C66.0679 10.543 67.3372 9.97949 68.8307 9.97949C69.5181 9.97949 70.163 10.1093 70.7653 10.3681C71.3685 10.6269 71.9257 11.0156 72.4377 11.5332L72.4386 10.2736ZM69.4171 12.6258C68.5286 12.6258 67.7908 12.9394 67.2026 13.5656C66.6144 14.1919 66.3212 14.9956 66.3212 15.9752C66.3212 16.9618 66.6197 17.7744 67.2185 18.4113C67.8165 19.0481 68.5526 19.367 69.4277 19.367C70.3304 19.367 71.0789 19.0534 71.6732 18.4272C72.2676 17.8009 72.5653 16.9804 72.5653 15.9646C72.5653 14.9709 72.2676 14.1654 71.6732 13.5497C71.0789 12.9341 70.3268 12.6258 69.4171 12.6258Z" fill="white"/>
<path d="M77.9038 5.86426H80.7782V21.6979H77.9038V5.86426Z" fill="white"/>
<path d="M88.7701 9.98047C89.8507 9.98047 90.8667 10.2499 91.8181 10.7887C92.7695 11.3275 93.5118 12.0588 94.045 12.9827C94.5783 13.9067 94.8458 14.9039 94.8458 15.9753C94.8458 17.0529 94.5774 18.0616 94.0406 18.9988C93.5038 19.9368 92.7721 20.6699 91.8456 21.1981C90.919 21.7263 89.8977 21.9904 88.7816 21.9904C87.1393 21.9904 85.7371 21.4075 84.5749 20.2424C83.4127 19.0765 82.8325 17.6615 82.8325 15.9956C82.8325 14.2105 83.4889 12.7231 84.8017 11.5333C85.9514 10.4981 87.2748 9.98047 88.7701 9.98047ZM88.8179 12.6789C87.925 12.6789 87.1809 12.9889 86.5874 13.6081C85.9939 14.2273 85.6963 15.0205 85.6963 15.9859C85.6963 16.9796 85.9895 17.7851 86.5768 18.4008C87.1641 19.0173 87.9073 19.3247 88.8073 19.3247C89.7072 19.3247 90.4557 19.0138 91.0537 18.3902C91.6516 17.7675 91.9501 16.9655 91.9501 15.9859C91.9501 15.0063 91.656 14.2096 91.0696 13.5975C90.4823 12.9845 89.732 12.6789 88.8179 12.6789Z" fill="white"/>
<defs>
<linearGradient id="paint0_linear_147_6503" x1="603.942" y1="-155.882" x2="765.034" y2="2673.71" gradientUnits="userSpaceOnUse">
<stop offset="0.0198" stop-color="#A75584"/>
<stop offset="0.4205" stop-color="#B6496F"/>
<stop offset="0.5737" stop-color="#BF4868"/>
<stop offset="0.819" stop-color="#D64455"/>
<stop offset="0.9056" stop-color="#E0434D"/>
</linearGradient>
<linearGradient id="paint1_linear_147_6503" x1="849.768" y1="130.945" x2="-138.146" y2="2642.69" gradientUnits="userSpaceOnUse">
<stop offset="0.00284334" stop-color="#FFE065"/>
<stop offset="0.0241" stop-color="#FFDC54"/>
<stop offset="0.1284" stop-color="#FFC906"/>
<stop offset="0.1449" stop-color="#FEC30C"/>
<stop offset="0.26" stop-color="#F59D31"/>
<stop offset="0.3206" stop-color="#F28F3F"/>
<stop offset="0.4698" stop-color="#ED6948"/>
</linearGradient>
<linearGradient id="paint2_linear_147_6503" x1="544.88" y1="7.06842" x2="949.058" y2="2156.44" gradientUnits="userSpaceOnUse">
<stop offset="0.0181" stop-color="#CF5C6C"/>
<stop offset="0.0904" stop-color="#D85F68"/>
<stop offset="0.2682" stop-color="#EB6661"/>
<stop offset="0.3956" stop-color="#F1685F"/>
<stop offset="0.6521" stop-color="#F0774F"/>
<stop offset="0.9568" stop-color="#F08441"/>
</linearGradient>
</defs>
</svg>
