<svg width="940" height="940" viewBox="0 0 940 940" fill="none" xmlns="http://www.w3.org/2000/svg">
<g opacity="0.45" filter="url(#filter0_f_6154_286)">
<path d="M779.995 671.944C726.443 754.138 642.446 811.707 546.471 831.997C450.496 852.287 350.398 833.636 268.183 780.144C185.967 726.653 128.363 642.699 108.034 546.738C87.7052 450.778 106.316 350.667 159.774 268.412C213.232 186.156 297.163 128.49 393.114 108.091C489.066 87.6911 589.186 106.228 671.462 159.625C753.739 213.023 811.439 296.91 831.878 392.847C852.317 488.784 833.821 588.917 780.457 671.233" fill="#D9DFFF"/>
</g>
<g opacity="0.7" filter="url(#filter1_f_6154_286)">
<path d="M779.995 671.944C726.443 754.138 642.446 811.707 546.471 831.997C450.496 852.287 350.398 833.636 268.183 780.144C185.967 726.653 128.363 642.699 108.034 546.738C87.7052 450.778 106.316 350.667 159.774 268.412C213.232 186.156 297.163 128.49 393.114 108.091C489.066 87.6911 589.186 106.228 671.462 159.625C753.739 213.023 811.439 296.91 831.878 392.847C852.317 488.784 833.821 588.917 780.457 671.233" fill="#637CFF"/>
</g>
<g filter="url(#filter2_ii_6154_286)">
<path d="M779.995 671.944C726.443 754.138 642.446 811.707 546.471 831.997C450.496 852.287 350.398 833.636 268.183 780.144C185.967 726.653 128.363 642.699 108.034 546.738C87.7052 450.778 106.316 350.667 159.774 268.412C213.232 186.156 297.163 128.49 393.114 108.091C489.066 87.6911 589.186 106.228 671.462 159.625C753.739 213.023 811.439 296.91 831.878 392.847C852.317 488.784 833.821 588.917 780.457 671.233" fill="url(#paint0_linear_6154_286)"/>
</g>
<rect x="188" y="256" width="260" height="320" rx="130" fill="white"/>
<rect x="492" y="256" width="260" height="320" rx="130" fill="white"/>
<rect x="232" y="300" width="172" height="232" rx="86" fill="#040614"/>
<rect x="536" y="300" width="172" height="232" rx="86" fill="#040614"/>
<circle cx="359" cy="345" r="49" fill="white"/>
<circle cx="663" cy="345" r="49" fill="white"/>
<path d="M360.5 616C360.5 604.678 369.678 595.5 381 595.5C392.322 595.5 401.5 604.678 401.5 616C401.5 644.719 424.781 668 453.5 668C464.822 668 474 677.178 474 688.5C474 699.822 464.822 709 453.5 709C402.138 709 360.5 667.362 360.5 616Z" fill="#040614"/>
<defs>
<filter id="filter0_f_6154_286" x="0" y="0" width="940" height="940" filterUnits="userSpaceOnUse" color-interpolation-filters="sRGB">
<feFlood flood-opacity="0" result="BackgroundImageFix"/>
<feBlend mode="normal" in="SourceGraphic" in2="BackgroundImageFix" result="shape"/>
<feGaussianBlur stdDeviation="50" result="effect1_foregroundBlur_6154_286"/>
</filter>
<filter id="filter1_f_6154_286" x="76" y="76" width="788" height="788" filterUnits="userSpaceOnUse" color-interpolation-filters="sRGB">
<feFlood flood-opacity="0" result="BackgroundImageFix"/>
<feBlend mode="normal" in="SourceGraphic" in2="BackgroundImageFix" result="shape"/>
<feGaussianBlur stdDeviation="12" result="effect1_foregroundBlur_6154_286"/>
</filter>
<filter id="filter2_ii_6154_286" x="100" y="100" width="740" height="740" filterUnits="userSpaceOnUse" color-interpolation-filters="sRGB">
<feFlood flood-opacity="0" result="BackgroundImageFix"/>
<feBlend mode="normal" in="SourceGraphic" in2="BackgroundImageFix" result="shape"/>
<feColorMatrix in="SourceAlpha" type="matrix" values="0 0 0 0 0 0 0 0 0 0 0 0 0 0 0 0 0 0 127 0" result="hardAlpha"/>
<feOffset/>
<feGaussianBlur stdDeviation="57"/>
<feComposite in2="hardAlpha" operator="arithmetic" k2="-1" k3="1"/>
<feColorMatrix type="matrix" values="0 0 0 0 1 0 0 0 0 1 0 0 0 0 1 0 0 0 1 0"/>
<feBlend mode="normal" in2="shape" result="effect1_innerShadow_6154_286"/>
<feColorMatrix in="SourceAlpha" type="matrix" values="0 0 0 0 0 0 0 0 0 0 0 0 0 0 0 0 0 0 127 0" result="hardAlpha"/>
<feOffset/>
<feGaussianBlur stdDeviation="120"/>
<feComposite in2="hardAlpha" operator="arithmetic" k2="-1" k3="1"/>
<feColorMatrix type="matrix" values="0 0 0 0 1 0 0 0 0 1 0 0 0 0 1 0 0 0 0.6 0"/>
<feBlend mode="normal" in2="effect1_innerShadow_6154_286" result="effect2_innerShadow_6154_286"/>
</filter>
<linearGradient id="paint0_linear_6154_286" x1="470" y1="100" x2="470" y2="840" gradientUnits="userSpaceOnUse">
<stop stop-color="#2346FF"/>
<stop offset="1" stop-color="white"/>
</linearGradient>
</defs>
</svg>
